<svg xmlns="http://www.w3.org/2000/svg" version="1.1" xmlns:xlink="http://www.w3.org/1999/xlink" xmlns:svgjs="http://svgjs.dev/svgjs" width="1500" height="1500" viewBox="0 0 1500 1500"><rect width="1500" height="1500" fill="#293040"></rect><g transform="matrix(0.6666666666666666,0,0,0.6666666666666666,248.69240147465064,316.60645161290324)"><svg viewBox="0 0 287 248" data-background-color="#293040" preserveAspectRatio="xMidYMid meet" height="1296" width="1500" xmlns="http://www.w3.org/2000/svg" xmlns:xlink="http://www.w3.org/1999/xlink"><g id="tight-bounds" transform="matrix(1,0,0,1,0.37528077677526994,0.4000000000000057)"><svg viewBox="0 0 286.24943844644946 247.2" height="247.2" width="286.24943844644946"><g><svg viewBox="0 0 395.52000000000004 341.5641425556576" height="247.2" width="286.24943844644946"><g transform="matrix(1,0,0,1,0,211.10034297319416)"><svg viewBox="0 0 395.52000000000004 130.46379958246345" height="130.46379958246345" width="395.52000000000004"><g id="textblocktransform"><svg viewBox="0 0 395.52000000000004 130.46379958246345" height="130.46379958246345" width="395.52000000000004" id="textblock"><g><svg viewBox="0 0 395.52000000000004 130.46379958246345" height="130.46379958246345" width="395.52000000000004"><g transform="matrix(1,0,0,1,0,0)"><svg width="395.52000000000004" viewBox="2.75 -36.25 143.69 47.4" height="130.46379958246345" data-palette-color="#dee0e4"><path d="M2.75-29.25L2.75-33.45 26.2-33.45 25.3-29.25 16.85-29.25 11.2 0 5.4 0 11.1-29.25 2.75-29.25ZM28.75-3.7Q30-3.7 31.25-5.1 32.5-6.5 33.55-8.53 34.6-10.55 35.37-12.88 36.15-15.2 36.55-17.1L36.55-17.1 37.25-20.55Q36.65-20.85 35.87-20.95 35.1-21.05 34.4-21.05L34.4-21.05Q32.15-21.05 30.57-19.78 29-18.5 28.02-16.53 27.05-14.55 26.62-12.18 26.2-9.8 26.2-7.65L26.2-7.65Q26.2-5.45 26.82-4.58 27.45-3.7 28.75-3.7L28.75-3.7ZM26.9 0.4Q25.1 0.4 23.85-0.3 22.6-1 21.8-2.18 21-3.35 20.62-4.83 20.25-6.3 20.25-7.85L20.25-7.85Q20.25-11.4 21.17-14.5 22.1-17.6 23.9-19.93 25.7-22.25 28.3-23.58 30.9-24.9 34.3-24.9L34.3-24.9Q35.15-24.9 36.7-24.73 38.25-24.55 40.25-23.7L40.25-23.7 43.4-23.5 41.15-11.85Q40.65-9.2 40.65-7.2L40.65-7.2Q40.65-4.75 41.27-3.43 41.9-2.1 42.45-1.3L42.45-1.3 37.95 0.5Q37.2-0.35 36.72-1.6 36.25-2.85 36.25-4.45L36.25-4.45Q36.25-5.1 36.35-6.13 36.45-7.15 36.6-8.45L36.6-8.45 35.75-6.45Q34.9-4.5 33.9-3.18 32.9-1.85 31.77-1.05 30.65-0.25 29.42 0.08 28.2 0.4 26.9 0.4L26.9 0.4ZM58-25.1L58-25.1Q59.55-25.1 60.7-24.73 61.84-24.35 62.65-23.7 63.45-23.05 63.92-22.18 64.4-21.3 64.59-20.35L64.59-20.35 60.45-18.7Q60.25-19.15 60.1-19.63 59.95-20.1 59.65-20.48 59.35-20.85 58.87-21.08 58.4-21.3 57.6-21.3L57.6-21.3Q55.9-21.3 55.17-20.35 54.45-19.4 54.45-18.4L54.45-18.4Q54.45-17.7 54.72-17.15 55-16.6 55.4-16.15 55.8-15.7 56.27-15.35 56.75-15 57.15-14.8L57.15-14.8 58.6-14Q59.4-13.55 60.17-13.03 60.95-12.5 61.5-11.75 62.05-11 62.4-9.93 62.75-8.85 62.75-7.3L62.75-7.3Q62.75-5.7 62.12-4.28 61.5-2.85 60.3-1.78 59.1-0.7 57.3-0.08 55.5 0.55 53.1 0.55L53.1 0.55Q51.5 0.55 50.02 0.18 48.55-0.2 47.4-0.65L47.4-0.65Q46.1-1.2 44.9-1.85L44.9-1.85 47.1-5.8Q48.15-5.15 49.25-4.65L49.25-4.65Q50.15-4.2 51.22-3.85 52.3-3.5 53.25-3.5L53.25-3.5Q55.15-3.5 56.07-4.35 57-5.2 57-6.35L57-6.35Q57-8.05 56.07-8.93 55.15-9.8 53.95-10.45L53.95-10.45 52.7-11.1Q52.1-11.4 51.4-11.85 50.7-12.3 50.07-13.03 49.45-13.75 49.05-14.85 48.65-15.95 48.65-17.55L48.65-17.55Q48.65-19.15 49.25-20.53 49.85-21.9 51.02-22.93 52.2-23.95 53.95-24.53 55.7-25.1 58-25.1ZM74.24-7.8L72.74 0 67.14 0 74.04-35.25 79.69-36.25 78.14-27.85Q77.84-26.25 77.12-23.95 76.39-21.65 75.84-19.6L75.84-19.6Q77.79-22.75 79.94-23.83 82.09-24.9 84.19-24.9L84.19-24.9Q87.09-24.9 88.99-23.5 90.89-22.1 90.89-19.15L90.89-19.15Q90.89-16.9 89.77-15.28 88.64-13.65 87.29-12.65L87.29-12.65Q85.69-11.45 83.74-10.7L83.74-10.7Q84.39-8.65 85.17-6.93 85.94-5.2 86.92-3.6 87.89-2 89.04-0.48 90.19 1.05 91.59 2.65L91.59 2.65 87.14 5.15Q83.24 1.55 80.97-2.88 78.69-7.3 77.49-12L77.49-12 77.54-12.5Q77.94-12.6 79.17-13 80.39-13.4 81.69-14.1 82.99-14.8 84.02-15.83 85.04-16.85 85.04-18.2L85.04-18.2Q85.04-19.5 84.49-20.18 83.94-20.85 82.54-20.85L82.54-20.85Q80.79-20.85 79.42-19.48 78.04-18.1 76.99-16.07 75.94-14.05 75.27-11.8 74.59-9.55 74.24-7.8L74.24-7.8ZM102.44-36.05Q104.04-36.05 104.79-35.18 105.54-34.3 105.54-32.8L105.54-32.8Q105.54-31.35 104.54-30.23 103.54-29.1 101.84-29.1L101.84-29.1Q100.24-29.1 99.49-30 98.74-30.9 98.74-32.25L98.74-32.25Q98.74-33.8 99.72-34.93 100.69-36.05 102.44-36.05L102.44-36.05ZM98.79 0.25Q96.54 0.25 95.34-0.9 94.14-2.05 94.14-3.95L94.14-3.95Q94.14-4.65 94.29-5.4L94.29-5.4 98.09-24.5 103.59-24.5 99.99-5.9Q99.94-5.65 99.92-5.48 99.89-5.3 99.89-5.1L99.89-5.1Q99.89-3.85 100.74-3.85L100.74-3.85Q101.59-3.85 102.39-4.03 103.19-4.2 103.29-4.25L103.29-4.25 103.29-0.65Q102.74-0.4 102.04-0.2L102.04-0.2Q101.44 0 100.62 0.13 99.79 0.25 98.79 0.25L98.79 0.25ZM127.39-31.3L123.24-29.5Q122.99-30.45 122.46-31.25 121.94-32.05 120.74-32.05L120.74-32.05Q119.19-32.05 118.31-31.13 117.44-30.2 117.44-28.35L117.44-28.35Q117.44-27.65 117.56-26.6 117.69-25.55 117.99-24.5L117.99-24.5 123.84-24.5 123.19-20.45 117.54-20.45 113.79-1.25Q113.24 1.5 112.24 3.38 111.24 5.25 109.84 6.63 108.44 8 106.66 9.05 104.89 10.1 102.79 11.15L102.79 11.15 100.84 7.35Q102.49 6.6 103.71 5.85 104.94 5.1 105.84 4.2 106.74 3.3 107.34 2.13 107.94 0.95 108.24-0.65L108.24-0.65 112.09-20.45 107.74-20.45 107.74-24.5 113.29-24.5Q112.64-25.45 112.41-26.63 112.19-27.8 112.19-28.8L112.19-28.8Q112.19-30.6 112.94-31.98 113.69-33.35 114.94-34.27 116.19-35.2 117.86-35.65 119.54-36.1 121.39-36.1L121.39-36.1Q124.14-36.1 125.46-34.75 126.79-33.4 127.39-31.3L127.39-31.3ZM146.44-24.5Q146.44-24.6 146.21-23.6 145.99-22.6 145.61-20.95 145.24-19.3 144.81-17.3 144.39-15.3 144.04-13.35 143.69-11.4 143.44-9.78 143.19-8.15 143.19-7.3L143.19-7.3Q143.19-6.05 143.31-4.98 143.44-3.9 143.59-2.88 143.74-1.85 143.86-0.83 143.99 0.2 143.99 1.35L143.99 1.35Q143.99 4.1 143.24 5.98 142.49 7.85 141.11 8.97 139.74 10.1 137.76 10.6 135.79 11.1 133.39 11.1L133.39 11.1Q131.94 11.1 130.49 10.78 129.04 10.45 127.69 10 126.34 9.55 125.16 9.03 123.99 8.5 123.14 8.1L123.14 8.1 125.09 3.9Q126.04 4.3 127.14 4.78 128.24 5.25 129.39 5.65 130.54 6.05 131.74 6.33 132.94 6.6 134.09 6.6L134.09 6.6Q136.44 6.6 137.74 5.1 139.04 3.6 139.04 1.45L139.04 1.45Q139.04 1 139.01 0.48 138.99-0.05 138.94-0.73 138.89-1.4 138.86-2.3 138.84-3.2 138.84-4.5L138.84-4.5Q138.84-5.4 138.99-6.55 139.14-7.7 139.24-8.55L139.24-8.55 138.29-6.45Q136.84-3 134.41-1.3 131.99 0.4 128.99 0.4L128.99 0.4Q125.69 0.4 124.16-1.25 122.64-2.9 122.64-5.7L122.64-5.7Q122.64-7.65 123.14-9.5 123.64-11.35 124.26-13.13 124.89-14.9 125.39-16.65 125.89-18.4 125.89-20.15L125.89-20.15Q125.89-21.15 125.81-22.13 125.74-23.1 125.64-23.65L125.64-23.65 130.39-24.85Q130.94-23.75 131.14-22.38 131.34-21 131.34-19.8L131.34-19.8Q131.34-18.05 130.86-16.45 130.39-14.85 129.84-13.28 129.29-11.7 128.81-10.15 128.34-8.6 128.34-6.95L128.34-6.95Q128.34-5.75 128.91-4.93 129.49-4.1 131.04-4.1L131.04-4.1Q132.39-4.1 133.69-5.28 134.99-6.45 136.11-8.28 137.24-10.1 138.06-12.3 138.89-14.5 139.29-16.55L139.29-16.55 140.84-24.5 146.44-24.5Z" opacity="1" transform="matrix(1,0,0,1,0,0)" fill="#dee0e4" class="wordmark-text-0" data-fill-palette-color="primary" id="text-0"></path></svg></g></svg></g></svg></g></svg></g><g transform="matrix(1,0,0,1,120.17941406928333,0)"><svg viewBox="0 0 155.1611718614334 180.30097102296452" height="180.30097102296452" width="155.1611718614334"><g><svg xmlns="http://www.w3.org/2000/svg" xmlns:xlink="http://www.w3.org/1999/xlink" version="1.1" x="0" y="0" viewBox="2.96217666004358 2.7871975281759584 64.08128218807998 74.463973585" enable-background="new 0 0 70 80" xml:space="preserve" height="180.30097102296452" width="155.1611718614334" class="icon-icon-0" data-fill-palette-color="accent" id="icon-0"><path d="M24.6 71.4C19.2 71.2 16.5 71.1 11 70.7 10.3 70.7 9.8 70.1 9.7 69.4 8.6 49.7 8.6 29.9 9.7 10.2 9.7 9.5 10.3 9 11 8.9 27.1 7.7 43.3 7.7 59.4 8.9 60.1 9 60.6 9.5 60.7 10.2 61.3 20.2 61.6 30.3 61.5 40.3 61.5 40.3 61.5 41.1 62 41.8 63.5 43.3 64.3 44 65.8 45.5 67.2 46.8 67 44.7 67 44.7 67.2 32 66.7 19.2 65.7 6.5 65.6 5.2 64.5 4 63.3 3.9 44.1 2.4 25.6 2.4 6.4 4 5.2 4.1 4.2 5.3 4.1 6.6 2.6 28.8 2.6 50.7 4 73 4.1 74.3 5.2 75.5 6.4 75.6 15.5 76.6 20 76.9 29.1 77.1 29.1 77.1 31.7 77.2 30.2 75.6 28.9 74.3 28.3 73.6 27 72.3 27.1 72.3 26.3 71.5 24.6 71.4" fill="#39c535" data-fill-palette-color="accent"></path><path d="M26.9 65.9C26.3 65.3 26.3 64.2 26.9 63.6 28.5 62 29.2 61.2 30.8 59.6 31.4 59 32.4 59 33 59.6 35.6 62.2 36.9 63.5 39.4 66.1 40 66.7 41 66.7 41.6 66.1 41.6 66.1 56.4 50.2 59.6 48 60.3 47.5 61.3 47.4 61.9 47.9 63.5 49.4 64.3 50.1 65.8 51.6 66.4 52.2 66.4 53.1 65.7 53.8 58.3 61.1 51 68.5 43.9 76 42 77.6 38.5 77.7 36.9 76.1 33 72.1 31 70 26.9 65.9" fill="#39c535" data-fill-palette-color="accent"></path><path d="M55 20.7C55 21.4 54.5 21.9 53.8 21.9 41.2 21.5 28.5 21.5 15.9 21.9 15.2 21.9 14.7 21.4 14.7 20.7 14.7 19.7 14.7 19.2 14.8 18.3 14.8 17.6 15.4 17.1 16.1 17 28.6 16.5 41.2 16.5 53.7 17 54.4 17 54.9 17.6 55 18.3z" fill="#39c535" data-fill-palette-color="accent"></path><path d="M55.2 32.2C55.2 32.9 54.7 33.4 54 33.4 41.2 33.3 28.5 33.3 15.7 33.4 15 33.4 14.5 32.9 14.5 32.2V29.8C14.5 29.1 15.1 28.6 15.7 28.6 28.4 28.3 41.1 28.3 53.9 28.6 54.6 28.6 55.1 29.2 55.1 29.8 55.2 30.8 55.2 31.3 55.2 32.2" fill="#39c535" data-fill-palette-color="accent"></path><path d="M55.3 43.7C55.3 44.4 54.7 44.9 54.1 44.9 41.3 45 28.6 45 15.8 44.9 15.1 44.9 14.6 44.3 14.6 43.7V41.3C14.6 40.6 15.2 40.1 15.8 40.1H54.1C54.8 40.1 55.3 40.6 55.3 41.3z" fill="#39c535" data-fill-palette-color="accent"></path></svg></g></svg></g><g></g></svg></g><defs></defs></svg><rect width="286.24943844644946" height="247.2" fill="none" stroke="none" visibility="hidden"></rect></g></svg></g></svg>